<svg xmlns="http://www.w3.org/2000/svg" xmlns:xlink="http://www.w3.org/1999/xlink" width="40px" height="40px" viewBox="0 0 56 56" version="1.1">
    <!-- Generator: Sketch 49 (51002) - http://www.bohemiancoding.com/sketch -->
    <title>Fill 1</title>
    <desc>Created with Sketch.</desc>
    <defs></defs>
    <g id="Symbols" stroke="none" stroke-width="1" fill="none" fill-rule="evenodd">
        <g id="header" transform="translate(-692.000000, 0.000000)" fill="#8C99A0">
            <g id="Fill-1">
                <path d="M720.008909,0 L717.122494,0.124721604 L714.342984,0.570155902 L711.670379,1.24703786 L709.08686,2.19153675 L706.646058,3.38530067 L704.329621,4.75741648 L702.191537,6.39643653 L700.195991,8.19599109 L698.378619,10.1915367 L696.775056,12.3472606 L695.367483,14.6458797 L694.191537,17.1046771 L693.247216,19.6703786 L692.569978,22.3608018 L692.142539,25.1403118 L692,27.6741203 L692,28.4274388 L692.053452,29.7371938 L692.213987,31.4654788 L692.463252,33.1581292 L692.819599,34.8151448 L693.282851,36.4187082 L693.81755,37.986637 L694.458797,39.5011136 L695.18931,40.9977728 L695.991091,42.44098 L696.88196,43.8129176 L697.844098,45.1314031 L698.877506,46.3964365 L699.982183,47.5902004 L701.158129,48.7305122 L702.405345,49.7995546 L703.688196,50.77951 L703.706013,32.908686 L714.253898,32.908686 L714.91314,32.9443207 L715.572383,33.0512249 L716.178174,33.2293987 L716.766147,33.4432071 L717.336303,33.7461024 L717.817372,34.0846325 L718.298441,34.4766147 L718.761693,34.9042316 L719.135857,35.3853007 L719.492205,35.8841871 L719.795278,36.4365256 L720.062361,37.0066815 L720.276169,37.6124722 L720.436704,38.2182628 L720.561247,38.8598664 L720.614699,39.5011136 L720.614699,39.9109131 L720.614699,40.3387082 L720.54343,41.0155902 L720.400891,41.674833 L720.2049,42.298441 L719.955457,42.8864143 L719.652561,43.4922049 L719.296214,44.0267261 L718.886414,44.5432517 L718.44098,45.0066815 L717.942094,45.4342984 L717.407572,45.8084633 L716.855234,46.1468151 L716.267439,46.4142539 L715.626013,46.6280624 L714.966592,46.7884187 L714.30735,46.8953229 L713.612472,46.9309577 L709.033586,46.9309577 L711.100223,42.5835189 L713.55902,42.5835189 L713.826281,42.5657016 L714.093541,42.5300668 L714.360802,42.4586192 L714.592428,42.3518931 L714.841871,42.2628062 L715.055679,42.1379065 L715.25167,41.9777283 L715.44784,41.7995546 L715.608018,41.6213808 L715.768374,41.4075724 L715.910913,41.1937639 L716.017817,40.9621381 L716.106904,40.7126949 L716.160356,40.4634298 L716.195991,40.1959911 L716.213808,39.9109131 L716.195991,39.6436526 L716.160356,39.3942094 L716.106904,39.1267706 L716.017817,38.8953229 L715.910913,38.6636971 L715.78637,38.4320713 L715.626013,38.2538976 L715.465657,38.0580846 L715.269488,37.8797327 L715.073497,37.7193764 L714.859688,37.5946548 L714.628062,37.4877506 L714.396437,37.3986637 L714.146993,37.327216 L713.879733,37.2917595 L713.612472,37.2739421 L708.249621,37.2739421 L708.249621,40.481069 L708.249621,42.5835189 L708.249621,46.9309577 L708.249621,53.4342984 L709.603563,54.0222717 L710.993318,54.5211581 L712.418886,54.9664143 L713.879733,55.3405791 L715.376392,55.6258352 L716.890869,55.8396437 L718.423163,55.9641871 L720.008909,56 L722.859688,55.857461 L725.639198,55.4300223 L728.311804,54.752784 L730.895145,53.8084633 L733.336125,52.6325167 L735.652561,51.2249443 L737.826281,49.6035635 L739.786192,47.8040089 L741.603563,45.8084633 L743.207127,43.6525612 L744.614699,41.3541203 L745.790646,38.8953229 L746.734967,36.3297996 L747.447661,33.6213808 L747.857461,30.8596882 L748,27.9942984 L748,27.9878842 L747.857461,25.1403118 L747.447661,22.3608018 L746.734967,19.6703786 L745.790646,17.1046771 L744.614699,14.6458797 L743.207127,12.3472606 L741.603563,10.1915367 L739.786192,8.19599109 L737.826281,6.39643653 L735.652561,4.75741648 L733.336125,3.38530067 L730.895145,2.19153675 L728.311804,1.24703786 L725.639198,0.570155902 L722.859688,0.124721604 L720.008909,0 Z M728.792873,4.04454343 L738.717149,24.2494432 L734.120267,24.2494432 L732.962316,21.8619154 L727.260579,21.8619154 L727.260579,18.5122494 L731.269488,18.5122494 L728.792873,13.0066815 L723.483296,24.2494432 L718.83314,24.2494432 L728.792873,4.04454343 Z M710.85078,24.6592428 L709.906459,24.5167038 L708.997773,24.285078 L708.124722,23.9643653 L707.287305,23.5722049 L706.503341,23.0911359 L705.772829,22.5389755 L705.095768,21.9331849 L704.507795,21.2561247 L703.937639,20.5256125 L703.474388,19.7594655 L703.082405,18.922049 L702.743875,18.0489978 L702.512249,17.1403118 L702.36971,16.1959911 L702.316258,15.233853 L702.36971,14.2538976 L702.512249,13.3095768 L702.743875,12.401069 L703.082405,11.5278396 L703.474388,10.6904232 L703.937639,9.9064588 L704.507795,9.17594655 L705.095768,8.49888641 L705.772829,7.8752784 L706.503341,7.32311804 L707.287305,6.85951002 L708.124722,6.44988864 L708.997773,6.12917595 L709.906459,5.89755011 L710.85078,5.75483296 L711.812918,5.70155902 L712.400891,5.71955457 L712.971047,5.77282851 L713.541203,5.86209354 L714.093541,5.9688196 L714.628062,6.12917595 L715.162584,6.30734967 L715.679287,6.5213363 L716.178174,6.75278396 L716.659243,7.02004454 L717.122494,7.32311804 L717.567929,7.64365256 L717.995546,7.96454343 L718.405345,8.35634744 L718.77951,8.74832962 L719.135857,9.15812918 L719.474566,9.5681069 L716.195991,11.688196 L715.732739,11.2962138 L715.25167,10.9398664 L714.752784,10.636971 L714.218263,10.3698886 L713.951002,10.2626281 L713.665924,10.155902 L713.381024,10.0668151 L713.077951,9.99572383 L712.775056,9.92427617 L712.47216,9.9064588 L712.169265,9.87100223 L711.812918,9.87100223 L711.278396,9.88864143 L710.743875,9.97772829 L710.227171,10.1024499 L709.746102,10.2806236 L709.282851,10.5122494 L708.837416,10.77951 L708.427617,11.1002227 L708.071269,11.4387528 L707.714922,11.8129176 L707.394209,12.2405345 L707.126949,12.6859688 L706.91314,13.1314031 L706.734967,13.6479287 L706.592428,14.1469933 L706.521158,14.6816927 L706.485523,15.233853 L706.521158,15.7683742 L706.592428,16.3028953 L706.734967,16.8016036 L706.91314,17.3006682 L707.126949,17.7639198 L707.394209,18.1917149 L707.714922,18.6013363 L708.071269,18.9934967 L708.427617,19.3318486 L708.837416,19.6347439 L709.282851,19.9020045 L709.746102,20.1336303 L710.227171,20.311804 L710.743875,20.4365256 L711.278396,20.5256125 L711.812918,20.5434298 L712.454343,20.5256125 L712.757238,20.4897996 L713.060312,20.4365256 L713.345212,20.3830735 L713.612472,20.2941648 L713.879733,20.2048998 L714.146993,20.0801782 L714.663875,19.8485523 L715.162584,19.545657 L715.679287,19.1714922 L716.195991,18.7438753 L719.474566,20.8639644 L719.135857,21.2915813 L718.77951,21.6837416 L718.405345,22.093363 L717.995546,22.4498886 L717.567929,22.7884187 L717.122494,23.1091314 L716.659243,23.3940312 L716.178174,23.6436526 L715.679287,23.9109131 L715.162584,24.1069042 L714.628062,24.285078 L714.093541,24.4454343 L713.541203,24.5345212 L712.971047,24.6414254 L712.400891,24.6946993 L711.812918,24.7126949 L710.85078,24.6592428 Z M712.668151,25.9599109 L713.505568,28.0979955 L713.131403,28.0979955 L713.060312,27.8663697 L712.311804,27.8663697 L712.222717,28.0979955 L711.848552,28.0979955 L712.668151,25.9599109 Z M738.64588,28.0979955 L738.538976,28.08 L738.432071,28.0445434 L738.360802,27.9910913 L738.253898,27.9198218 L738.182628,27.8663697 L738.11118,27.7951002 L738.057906,27.7238307 L738.004454,27.634922 L737.951002,27.545657 L737.915367,27.4565702 L737.897728,27.3676615 L737.879733,27.2782183 L737.861915,27.1714922 L737.861915,27.0822272 L737.861915,26.9755011 L737.879733,26.8507795 L737.897728,26.7793318 L737.915367,26.6726058 L737.951002,26.5835189 L738.004454,26.4944321 L738.057906,26.4229844 L738.11118,26.3162584 L738.182628,26.2628062 L738.253898,26.2095323 L738.360802,26.1380846 L738.432071,26.1022717 L738.538976,26.0668151 L738.64588,26.0313586 L738.752784,26.013363 L738.895323,26.013363 L739.002227,26.013363 L739.109131,26.0313586 L739.25167,26.0668151 L739.32294,26.1022717 L739.429844,26.1380846 L739.501292,26.2095323 L739.572205,26.2628062 L739.643653,26.3162584 L739.697105,26.4229844 L739.750379,26.4944321 L739.804009,26.5835189 L739.839644,26.6726058 L739.857461,26.7793318 L739.893096,26.8507795 L739.893096,26.9755011 L739.893096,27.0822272 L739.893096,27.1714922 L739.893096,27.2782183 L739.857461,27.3676615 L739.839644,27.4565702 L739.804009,27.545657 L739.750379,27.634922 L739.697105,27.7238307 L739.643653,27.7951002 L739.572205,27.8663697 L739.501292,27.9198218 L739.429844,27.9910913 L739.32294,28.0445434 L739.25167,28.08 L739.109131,28.0979955 L739.002227,28.1336303 L738.895323,28.1336303 L738.752784,28.1336303 L738.64588,28.0979955 Z M732.979955,28.0979955 L732.873051,28.08 L732.766325,28.0445434 L732.67706,27.9910913 L732.587973,27.9198218 L732.516704,27.8663697 L732.445434,27.7951002 L732.391982,27.7238307 L732.33853,27.634922 L732.302895,27.545657 L732.249443,27.4565702 L732.231626,27.3676615 L732.213808,27.2782183 L732.195991,27.1714922 L732.195991,27.0822272 L732.195991,26.9755011 L732.213808,26.8507795 L732.231626,26.7793318 L732.249443,26.6726058 L732.302895,26.5835189 L732.33853,26.4944321 L732.391982,26.4229844 L732.445434,26.3162584 L732.516704,26.2628062 L732.587973,26.2095323 L732.67706,26.1380846 L732.766325,26.1022717 L732.873051,26.0668151 L732.979955,26.0313586 L733.087038,26.013363 L733.211403,26.013363 L733.336125,26.013363 L733.460846,26.0313586 L733.568107,26.0668151 L733.674833,26.1022717 L733.764098,26.1380846 L733.835189,26.2095323 L733.906459,26.2628062 L733.977728,26.3162584 L734.048998,26.4229844 L734.102272,26.4944321 L734.137906,26.5835189 L734.173719,26.6726058 L734.209354,26.7793318 L734.227171,26.8507795 L734.262628,26.9755011 L734.262628,27.0822272 L734.262628,27.1714922 L734.227171,27.2782183 L734.209354,27.3676615 L734.173719,27.4565702 L734.137906,27.545657 L734.102272,27.634922 L734.048998,27.7238307 L733.977728,27.7951002 L733.906459,27.8663697 L733.835189,27.9198218 L733.764098,27.9910913 L733.674833,28.0445434 L733.568107,28.08 L733.460846,28.0979955 L733.336125,28.1336303 L733.211403,28.1336303 L733.087038,28.1336303 L732.979955,28.0979955 Z M707.144766,26.5300668 L707.180401,26.4587973 L707.180401,26.4053452 L707.180401,26.3518931 L707.216036,26.2982628 L707.233853,26.2628062 L707.269488,26.2095323 L707.305122,26.1737194 L707.358575,26.1380846 L707.394209,26.1022717 L707.44784,26.0668151 L707.501114,26.0489978 L707.554566,26.0313586 L707.608196,26.013363 L707.66147,26.013363 L707.732739,26.013363 L707.804009,26.013363 L707.857461,26.013363 L707.928731,26.0313586 L707.982183,26.0489978 L708.035635,26.0668151 L708.089087,26.1022717 L708.124722,26.1380846 L708.178174,26.1737194 L708.213808,26.2095323 L708.249621,26.2628062 L708.267261,26.3162584 L708.302895,26.3697105 L708.320713,26.4229844 L708.33853,26.4944321 L708.33853,26.5478842 L708.33853,26.6191537 L708.33853,26.6547884 L708.33853,26.6726058 L708.33853,26.7260579 L708.320713,26.7438753 L708.320713,26.7793318 L708.320713,26.8151448 L708.302895,26.8331403 L708.285078,26.8507795 L708.267261,26.8864143 L708.249621,26.922049 L708.249621,26.9398664 L708.213808,26.9755011 L708.178174,26.9933185 L708.160356,27.011314 L708.124722,27.0289532 L708.106904,27.0289532 L708.124722,27.064588 L708.160356,27.0822272 L708.195991,27.1000445 L708.213808,27.1180401 L708.249621,27.1358575 L708.267261,27.1714922 L708.285078,27.1893096 L708.320713,27.2071269 L708.33853,27.2605791 L708.356347,27.2782183 L708.356347,27.3140312 L708.374165,27.3496659 L708.391982,27.3853007 L708.391982,27.4209354 L708.391982,27.4565702 L708.391982,27.4922049 L708.391982,27.5634744 L708.391982,27.6525612 L708.374165,27.7238307 L708.33853,27.7772829 L708.320713,27.8485523 L708.285078,27.9018263 L708.249621,27.9198218 L708.213808,27.9910913 L708.160356,28.0265479 L708.106904,28.0623608 L708.071269,28.08 L708,28.0979955 L707.946548,28.0979955 L707.893096,28.0979955 L707.821826,28.1336303 L707.768552,28.1336303 L707.714922,28.1336303 L707.643653,28.0979955 L707.572383,28.0979955 L707.536748,28.0979955 L707.465479,28.0623608 L707.412027,28.0445434 L707.358575,28.0089087 L707.305122,27.9732739 L707.269488,27.9198218 L707.233853,27.8840089 L707.198218,27.830735 L707.180401,27.7772829 L707.180401,27.7238307 L707.144766,27.6703786 L707.144766,27.5991091 L707.144766,27.5278396 L707.483296,27.5278396 L707.483296,27.5634744 L707.483296,27.5991091 L707.501114,27.634922 L707.501114,27.6525612 L707.536748,27.688196 L707.536748,27.7058352 L707.554566,27.7238307 L707.572383,27.7416481 L707.5902,27.7416481 L707.608196,27.7416481 L707.643653,27.7772829 L707.66147,27.7772829 L707.714922,27.7951002 L707.750557,27.7951002 L707.768552,27.7951002 L707.804009,27.7951002 L707.821826,27.7951002 L707.857461,27.7772829 L707.893096,27.7772829 L707.893096,27.7416481 L707.928731,27.7416481 L707.946548,27.7238307 L707.964365,27.7058352 L707.982183,27.688196 L708,27.6703786 L708.017817,27.6525612 L708.017817,27.6169265 L708.035635,27.5634744 L708.071269,27.5278396 L708.071269,27.4922049 L708.071269,27.4565702 L708.035635,27.4387528 L708.035635,27.3853007 L708.017817,27.3676615 L708.017817,27.3496659 L708,27.3318486 L707.982183,27.2962138 L707.964365,27.2782183 L707.946548,27.2605791 L707.910913,27.2427617 L707.893096,27.2427617 L707.893096,27.2071269 L707.839644,27.2071269 L707.821826,27.2071269 L707.786192,27.2071269 L707.750557,27.2071269 L707.608196,27.2071269 L707.608196,26.9040535 L707.750557,26.9040535 L707.786192,26.9040535 L707.804009,26.9040535 L707.821826,26.8864143 L707.857461,26.8864143 L707.893096,26.8507795 L707.910913,26.8507795 L707.928731,26.8331403 L707.946548,26.8151448 L707.946548,26.7973274 L707.964365,26.7616927 L707.982183,26.7438753 L707.982183,26.7084187 L707.982183,26.6726058 L708,26.6547884 L708,26.6191537 L708,26.5835189 L707.982183,26.5658797 L707.982183,26.5300668 L707.982183,26.4944321 L707.964365,26.4764365 L707.946548,26.4587973 L707.946548,26.44098 L707.928731,26.4229844 L707.910913,26.4053452 L707.893096,26.3875278 L707.857461,26.3697105 L707.839644,26.3697105 L707.821826,26.3518931 L707.786192,26.3518931 L707.768552,26.3162584 L707.732739,26.3162584 L707.714922,26.3162584 L707.679287,26.3518931 L707.643653,26.3518931 L707.625835,26.3697105 L707.608196,26.3697105 L707.572383,26.3875278 L707.554566,26.3875278 L707.536748,26.4053452 L707.536748,26.4229844 L707.536748,26.44098 L707.501114,26.4587973 L707.483296,26.4944321 L707.465479,26.5300668 L707.465479,26.5658797 L707.465479,26.5835189 L707.144766,26.5835189 L707.144766,26.5300668 Z M704.2049,26.8864143 L704.2049,26.8151448 L704.240713,26.7260579 L704.258352,26.636971 L704.293987,26.5658797 L704.329621,26.4764365 L704.365256,26.4053452 L704.418708,26.3162584 L704.47216,26.2804454 L704.54343,26.2271715 L704.614699,26.1737194 L704.685969,26.1202673 L704.757238,26.0846325 L704.864143,26.0489978 L704.953229,26.0313586 L705.042494,26.013363 L705.14922,26.013363 L705.273942,26.013363 L705.398664,26.0313586 L705.487751,26.0668151 L705.594655,26.1022717 L705.683742,26.1380846 L705.755011,26.2095323 L705.826459,26.2628062 L705.89755,26.3162584 L705.951002,26.4229844 L706.004633,26.4944321 L706.057906,26.5835189 L706.075724,26.6726058 L706.111359,26.7793318 L706.129176,26.8507795 L706.146993,27.064588 L706.129176,27.2605791 L706.111359,27.3676615 L706.111359,27.4565702 L706.057906,27.545657 L706.004633,27.634922 L705.951002,27.7238307 L705.89755,27.7951002 L705.826459,27.8663697 L705.755011,27.9198218 L705.683742,27.9910913 L705.594655,28.0445434 L705.487751,28.08 L705.398664,28.0979955 L705.273942,28.0979955 L705.14922,28.1336303 L705.042494,28.0979955 L704.953229,28.0979955 L704.864143,28.0979955 L704.757238,28.0623608 L704.685969,28.0265479 L704.614699,27.9732739 L704.54343,27.9198218 L704.47216,27.8663697 L704.418708,27.7951002 L704.365256,27.7238307 L704.329621,27.6525612 L704.293987,27.5634744 L704.258352,27.4922049 L704.240713,27.4209354 L704.2049,27.3318486 L704.2049,27.2427617 L703.902004,27.2427617 L703.902004,28.0979955 L703.563474,28.0979955 L703.563474,26.0313586 L703.902004,26.0313586 L703.902004,26.8864143 L704.2049,26.8864143 Z M701.122494,28.0979955 L700.997773,28.08 L700.890869,28.0445434 L700.801782,27.9910913 L700.730512,27.9198218 L700.641425,27.8663697 L700.587973,27.7951002 L700.516704,27.7238307 L700.463252,27.634922 L700.427617,27.545657 L700.4098,27.4565702 L700.356347,27.3676615 L700.33853,27.2782183 L700.320713,27.1714922 L700.320713,27.0822272 L700.320713,26.9755011 L700.33853,26.8507795 L700.356347,26.7793318 L700.4098,26.6726058 L700.427617,26.5835189 L700.463252,26.4944321 L700.516704,26.4229844 L700.587973,26.3162584 L700.641425,26.2628062 L700.730512,26.2095323 L700.801782,26.1380846 L700.890869,26.1022717 L700.997773,26.0668151 L701.122494,26.0313586 L701.211581,26.013363 L701.336303,26.013363 L701.478842,26.013363 L701.585746,26.0313586 L701.69265,26.0668151 L701.781737,26.1022717 L701.870824,26.1380846 L701.959911,26.2095323 L702.048998,26.2628062 L702.10245,26.3162584 L702.191537,26.4229844 L702.209354,26.4944321 L702.262806,26.5835189 L702.298441,26.6726058 L702.334076,26.7793318 L702.36971,26.8507795 L702.36971,26.9755011 L702.36971,27.0822272 L702.36971,27.1714922 L702.36971,27.2782183 L702.334076,27.3676615 L702.298441,27.4565702 L702.262806,27.545657 L702.209354,27.634922 L702.191537,27.7238307 L702.10245,27.7951002 L702.048998,27.8663697 L701.959911,27.9198218 L701.870824,27.9910913 L701.781737,28.0445434 L701.69265,28.08 L701.585746,28.0979955 L701.478842,28.1336303 L701.336303,28.1336303 L701.211581,28.1336303 L701.122494,28.0979955 Z M698.129176,28.0623608 L698.022272,28.0265479 L697.951002,27.9732739 L697.861915,27.9198218 L697.790646,27.8485523 L697.737194,27.7772829 L697.665924,27.688196 L697.612472,27.5991091 L697.576837,27.5102004 L697.55902,27.4209354 L697.505568,27.3140312 L697.487751,27.1893096 L697.487751,27.0822272 L697.487751,26.9576837 L697.505568,26.8507795 L697.55902,26.7438753 L697.55902,26.636971 L697.612472,26.5478842 L697.648107,26.4587973 L697.737194,26.3875278 L697.790646,26.2982628 L697.861915,26.2449889 L697.933185,26.1737194 L698.022272,26.1380846 L698.111359,26.0846325 L698.200445,26.0489978 L698.30735,26.0313586 L698.414254,26.013363 L698.521158,26.013363 L698.57461,26.013363 L698.628241,26.013363 L698.681514,26.013363 L698.734967,26.0313586 L698.841871,26.0489978 L698.930958,26.0846325 L699.020045,26.1380846 L699.109131,26.1915367 L699.180401,26.2449889 L699.25167,26.3162584 L699.020045,26.5478842 L698.984232,26.4944321 L698.91314,26.4764365 L698.859688,26.44098 L698.806236,26.4053452 L698.734967,26.3875278 L698.663697,26.3697105 L698.628241,26.3697105 L698.592428,26.3518931 L698.556793,26.3518931 L698.521158,26.3518931 L698.449889,26.3518931 L698.378619,26.3697105 L698.30735,26.3875278 L698.23608,26.4053452 L698.18245,26.44098 L698.129176,26.4764365 L698.093541,26.4944321 L698.022272,26.5478842 L697.986815,26.6011581 L697.951002,26.6547884 L697.915367,26.7260579 L697.915367,26.7793318 L697.861915,26.8507795 L697.861915,26.922049 L697.844098,26.9933185 L697.844098,27.0822272 L697.844098,27.1536748 L697.861915,27.2071269 L697.879733,27.2962138 L697.915367,27.3676615 L697.915367,27.4387528 L697.951002,27.4922049 L698.004454,27.545657 L698.040089,27.5991091 L698.093541,27.634922 L698.147171,27.688196 L698.200445,27.7238307 L698.271715,27.7416481 L698.325167,27.7416481 L698.396437,27.7772829 L698.449889,27.7772829 L698.521158,27.7951002 L698.592428,27.7772829 L698.663697,27.7772829 L698.734967,27.7416481 L698.806236,27.7416481 L698.859688,27.7058352 L698.91314,27.6703786 L698.984232,27.634922 L699.020045,27.5634744 L699.25167,27.830735 L699.180401,27.9018263 L699.109131,27.9554566 L699.020045,28.0089087 L698.930958,28.0623608 L698.841871,28.0979955 L698.734967,28.0979955 L698.628241,28.1336303 L698.57461,28.1336303 L698.521158,28.1336303 L698.414254,28.1336303 L698.325167,28.0979955 L698.218263,28.0979955 L698.129176,28.0623608 Z M741.08686,26.0313586 L741.781737,26.0313586 L741.817372,26.0313586 L741.888641,26.0489978 L741.942094,26.0489978 L741.995546,26.0668151 L742.048998,26.0846325 L742.120089,26.1022717 L742.191537,26.1380846 L742.244989,26.1737194 L742.298441,26.2271715 L742.351893,26.2804454 L742.387706,26.3162584 L742.405345,26.3518931 L742.423163,26.3875278 L742.458797,26.4229844 L742.458797,26.4764365 L742.458797,26.4944321 L742.458797,26.6191537 L742.458797,26.6726058 L742.458797,26.7084187 L742.458797,26.7616927 L742.458797,26.7973274 L742.423163,26.8331403 L742.405345,26.8507795 L742.387706,26.9040535 L742.351893,26.9398664 L742.334076,26.9576837 L742.316258,26.9755011 L742.280445,27.011314 L742.244989,27.0289532 L742.209354,27.0289532 L742.173719,27.0289532 L742.155724,27.064588 L742.120089,27.0822272 L742.191537,27.1000445 L742.244989,27.1180401 L742.298441,27.1358575 L742.351893,27.1714922 L742.387706,27.2071269 L742.405345,27.2427617 L742.458797,27.2782183 L742.458797,27.3318486 L742.476615,27.3676615 L742.476615,27.3853007 L742.494432,27.4209354 L742.494432,27.4565702 L742.494432,27.4922049 L742.494432,27.5102004 L742.494432,27.6169265 L742.476615,27.7058352 L742.458797,27.7772829 L742.405345,27.8485523 L742.351893,27.9018263 L742.298441,27.9554566 L742.244989,27.9910913 L742.191537,28.0265479 L742.120089,28.0445434 L742.066815,28.0623608 L742.013363,28.08 L741.942094,28.0979955 L741.853007,28.0979955 L741.781737,28.0979955 L741.08686,28.0979955 L741.08686,26.0313586 Z M735.438753,26.0313586 L736.115813,26.0313586 L736.151626,26.0313586 L736.222717,26.0489978 L736.276169,26.0668151 L736.347439,26.0668151 L736.400891,26.0846325 L736.472339,26.1202673 L736.525612,26.1380846 L736.596882,26.1915367 L736.650334,26.2271715 L736.703786,26.2982628 L736.721604,26.3162584 L736.757238,26.3697105 L736.775234,26.4053452 L736.775234,26.44098 L736.792873,26.4944321 L736.81069,26.5300668 L736.81069,26.636971 L736.81069,26.7438753 L736.792873,26.7973274 L736.775234,26.8507795 L736.775234,26.8864143 L736.757238,26.922049 L736.721604,26.9576837 L736.703786,26.9933185 L736.650334,27.0289532 L736.596882,27.1000445 L736.525612,27.1358575 L736.472339,27.1714922 L736.400891,27.2071269 L736.347439,27.2071269 L736.276169,27.2071269 L736.222717,27.2427617 L736.151626,27.2427617 L736.115813,27.2427617 L735.777283,27.2427617 L735.777283,28.0979955 L735.438753,28.0979955 L735.438753,26.0313586 Z M729.986637,26.0313586 L731.198218,26.0313586 L731.198218,26.3518931 L730.770601,26.3518931 L730.770601,28.0979955 L730.414254,28.0979955 L730.414254,26.3518931 L729.986637,26.3518931 L729.986637,26.0313586 Z M728.650156,26.0313586 L729.095768,26.0313586 L728.240535,27.0822272 L729.095768,28.0979955 L728.632517,28.0979955 L728.026726,27.3140312 L727.7951,27.545657 L727.7951,28.0979955 L727.45657,28.0979955 L727.45657,26.0313586 L727.7951,26.0313586 L727.7951,27.0822272 L728.650156,26.0313586 Z M724.926682,26.0313586 L726.316258,26.0313586 L726.316258,26.3875278 L725.265033,26.3875278 L725.265033,26.9040535 L726.138085,26.9040535 L726.138085,27.2427617 L725.265033,27.2427617 L725.265033,27.7416481 L726.316258,27.7416481 L726.316258,28.0979955 L724.926682,28.0979955 L724.926682,26.0313586 Z M722.628062,26.0313586 L723.857461,26.0313586 L723.857461,26.3518931 L723.412027,26.3518931 L723.412027,28.0979955 L723.073497,28.0979955 L723.073497,26.3518931 L722.628062,26.3518931 L722.628062,26.0313586 Z M721.202673,26.0313586 L721.55902,26.0313586 L721.55902,28.0979955 L721.22049,28.0979955 L721.22049,26.5835189 L720.187082,28.0979955 L719.830557,28.0979955 L719.830557,26.0313586 L720.187082,26.0313586 L720.187082,27.545657 L721.202673,26.0313586 Z M718.761693,26.0313586 L718.013363,27.0822272 L718.761693,28.0979955 L718.334076,28.0979955 L717.799555,27.3676615 L717.265033,28.0979955 L716.855234,28.0979955 L717.585746,27.0822272 L716.855234,26.0313586 L717.265033,26.0313586 L717.799555,26.7793318 L718.334076,26.0313586 L718.761693,26.0313586 Z M714.538976,26.0313586 L715.216036,26.0313586 L715.25167,26.0313586 L715.323118,26.0489978 L715.376392,26.0668151 L715.44784,26.0668151 L715.501114,26.0846325 L715.572383,26.1202673 L715.626013,26.1380846 L715.697105,26.1915367 L715.750557,26.2271715 L715.804009,26.2982628 L715.821648,26.3162584 L715.857461,26.3697105 L715.875278,26.4053452 L715.875278,26.44098 L715.910913,26.4944321 L715.910913,26.5300668 L715.910913,26.636971 L715.910913,26.7438753 L715.910913,26.7973274 L715.875278,26.8507795 L715.875278,26.8864143 L715.857461,26.922049 L715.821648,26.9576837 L715.804009,26.9933185 L715.750557,27.0289532 L715.697105,27.1000445 L715.626013,27.1358575 L715.572383,27.1714922 L715.501114,27.2071269 L715.44784,27.2071269 L715.376392,27.2071269 L715.323118,27.2427617 L715.25167,27.2427617 L715.216036,27.2427617 L714.877506,27.2427617 L714.877506,28.0979955 L714.538976,28.0979955 L714.538976,26.0313586 Z M739.25167,29.0244989 L740.071269,31.1269488 L739.697105,31.1269488 L739.608018,30.9129621 L738.895323,30.9129621 L738.788419,31.1269488 L738.414254,31.1269488 L739.25167,29.0244989 Z M730.342984,29.0244989 L731.144766,31.1269488 L730.770601,31.1269488 L730.699332,30.9129621 L729.986637,30.9129621 L729.879911,31.1269488 L729.505568,31.1269488 L730.342984,29.0244989 Z M726.262806,29.0244989 L727.100223,31.1269488 L726.726058,31.1269488 L726.619154,30.9129621 L725.906459,30.9129621 L725.817372,31.1269488 L725.443029,31.1269488 L726.262806,29.0244989 Z M712.240713,29.0244989 L713.060312,31.1269488 L712.703786,31.1269488 L712.240713,29.8797327 L711.777461,31.1269488 L711.403118,31.1269488 L712.240713,29.0244989 Z M734.85078,31.1269488 L734.761514,31.0911359 L734.654788,31.0556793 L734.583519,31.0022272 L734.494432,30.9487751 L734.44098,30.8953229 L734.351893,30.8062361 L734.298441,30.7349666 L734.262628,30.6458797 L734.191537,30.5567929 L734.155902,30.4498886 L734.137906,30.3429844 L734.120267,30.2360802 L734.120267,30.1111804 L734.120267,29.9864588 L734.137906,29.8797327 L734.155902,29.7730067 L734.191537,29.6835635 L734.262628,29.5946548 L734.280624,29.5053898 L734.351893,29.4166592 L734.405345,29.3452116 L734.476615,29.2739421 L734.56588,29.22049 L734.654788,29.1670379 L734.743875,29.1314031 L734.832962,29.0957684 L734.939688,29.0601336 L735.046771,29.0601336 L735.153675,29.0423163 L735.260579,29.0601336 L735.367661,29.0601336 L735.45657,29.0957684 L735.510022,29.1137639 L735.563296,29.1314031 L735.599109,29.1492205 L735.652561,29.1670379 L735.688196,29.2026726 L735.74147,29.22049 L735.777283,29.2561247 L735.812918,29.2917595 L735.866192,29.3093987 L735.884187,29.3452116 L735.634744,29.5946548 L735.616748,29.5768374 L735.599109,29.5233853 L735.563296,29.5233853 L735.545657,29.5053898 L735.510022,29.4875724 L735.510022,29.4699332 L735.420935,29.4521158 L735.367661,29.4166592 L735.296214,29.3986637 L735.224944,29.3986637 L735.18931,29.3986637 L735.153675,29.3986637 L735.082405,29.3986637 L735.011136,29.3986637 L734.939688,29.4166592 L734.868775,29.4521158 L734.814967,29.4699332 L734.761514,29.5053898 L734.708241,29.5233853 L734.654788,29.5946548 L734.619154,29.6481069 L734.583519,29.701559 L734.548062,29.7550111 L734.512249,29.8262806 L734.494432,29.8797327 L734.476615,29.9510022 L734.476615,30.0402673 L734.476615,30.1111804 L734.476615,30.1826281 L734.476615,30.2717149 L734.494432,30.3429844 L734.530067,30.4142539 L734.548062,30.467706 L734.583519,30.5389755 L734.619154,30.5924276 L734.672606,30.6280624 L734.726058,30.6815145 L734.797327,30.7173274 L734.832962,30.752784 L734.886414,30.7706013 L734.975501,30.7706013 L735.011136,30.8240535 L735.082405,30.8240535 L735.153675,30.8240535 L735.224944,30.8240535 L735.296214,30.8062361 L735.367661,30.7706013 L735.420935,30.7706013 L735.510022,30.752784 L735.545657,30.7173274 L735.599109,30.6815145 L735.616748,30.6458797 L735.634744,30.6280624 L735.884187,30.8775056 L735.812918,30.9309577 L735.74147,31.0022272 L735.652561,31.0556793 L735.563296,31.0911359 L735.45657,31.1269488 L735.367661,31.1625835 L735.331849,31.1625835 L735.260579,31.1625835 L735.207127,31.1804009 L735.153675,31.1804009 L735.046771,31.1625835 L734.975501,31.1625835 L734.85078,31.1269488 Z M702.743875,31.1269488 L702.654788,31.0911359 L702.565702,31.0556793 L702.476615,31.0022272 L702.405345,30.9487751 L702.334076,30.8953229 L702.262806,30.8062361 L702.209354,30.7349666 L702.15608,30.6458797 L702.10245,30.5567929 L702.066815,30.4498886 L702.048998,30.3429844 L702.03118,30.2360802 L702.03118,30.1111804 L702.03118,29.9864588 L702.048998,29.8797327 L702.066815,29.7730067 L702.10245,29.6835635 L702.138085,29.5946548 L702.191537,29.5053898 L702.244989,29.4166592 L702.316258,29.3452116 L702.387528,29.2739421 L702.458797,29.22049 L702.547884,29.1670379 L702.637149,29.1314031 L702.743875,29.0957684 L702.85078,29.0601336 L702.957862,29.0601336 L703.082405,29.0423163 L703.171492,29.0601336 L703.278396,29.0601336 L703.367483,29.0957684 L703.45657,29.1314031 L703.510022,29.1492205 L703.563474,29.1670379 L703.616927,29.2026726 L703.634744,29.22049 L703.688196,29.2561247 L703.723831,29.2917595 L703.7951,29.3452116 L703.545657,29.5946548 L703.492205,29.5233853 L703.45657,29.5053898 L703.385301,29.4699332 L703.331849,29.4521158 L703.260579,29.4166592 L703.207127,29.3986637 L703.135857,29.3986637 L703.082405,29.3986637 L702.993318,29.3986637 L702.904232,29.3986637 L702.832962,29.4166592 L702.77951,29.4521158 L702.726058,29.4699332 L702.654788,29.5053898 L702.601336,29.5233853 L702.565702,29.5946548 L702.512249,29.6481069 L702.476615,29.701559 L702.44098,29.7550111 L702.423163,29.8262806 L702.405345,29.8797327 L702.387528,29.9510022 L702.387528,30.0402673 L702.387528,30.1111804 L702.387528,30.1826281 L702.387528,30.2717149 L702.405345,30.3429844 L702.44098,30.4142539 L702.458797,30.467706 L702.494432,30.5389755 L702.547884,30.5924276 L702.583519,30.6280624 L702.619332,30.6815145 L702.672606,30.7173274 L702.726058,30.752784 L702.797506,30.7706013 L702.85078,30.7706013 L702.922049,30.8240535 L702.993318,30.8240535 L703.082405,30.8240535 L703.135857,30.8240535 L703.207127,30.8062361 L703.260579,30.7706013 L703.331849,30.7706013 L703.385301,30.752784 L703.45657,30.7173274 L703.492205,30.6815145 L703.545657,30.6280624 L703.7951,30.8775056 L703.723831,30.9309577 L703.634744,31.0022272 L703.563474,31.0556793 L703.45657,31.0911359 L703.367483,31.1269488 L703.278396,31.1625835 L703.224944,31.1625835 L703.171492,31.1625835 L703.11804,31.1804009 L703.082405,31.1804009 L702.957862,31.1625835 L702.85078,31.1625835 L702.743875,31.1269488 Z M742.048998,29.9331849 L742.048998,29.077951 L742.405345,29.077951 L742.405345,31.1269488 L742.048998,31.1269488 L742.048998,30.2893541 L741.211581,30.2893541 L741.211581,31.1269488 L740.855234,31.1269488 L740.855234,29.077951 L741.211581,29.077951 L741.211581,29.9331849 L742.048998,29.9331849 Z M736.614699,29.077951 L737.826281,29.077951 L737.826281,29.3986637 L737.380846,29.3986637 L737.380846,31.1269488 L737.042316,31.1269488 L737.042316,29.3986637 L736.614699,29.3986637 L736.614699,29.077951 Z M731.946548,29.077951 L732.623608,29.077951 L732.659065,29.077951 L732.730512,29.077951 L732.783964,29.0957684 L732.837416,29.0957684 L732.908686,29.1314031 L732.962316,29.1492205 L733.033408,29.1670379 L733.104677,29.22049 L733.157951,29.2739421 L733.211403,29.3273942 L733.229399,29.3452116 L733.247216,29.3986637 L733.265212,29.4342984 L733.282851,29.4699332 L733.30049,29.5233853 L733.30049,29.5768374 L733.318486,29.6835635 L733.30049,29.7906459 L733.30049,29.844098 L733.282851,29.8797327 L733.265212,29.9155457 L733.247216,29.9688196 L733.229399,30.0044543 L733.211403,30.0222717 L733.157951,30.0935412 L733.104677,30.1469933 L733.033408,30.1826281 L732.962316,30.218441 L732.908686,30.2360802 L732.837416,30.2360802 L732.783964,30.2717149 L732.730512,30.2717149 L732.659065,30.2893541 L732.623608,30.2893541 L732.267261,30.2893541 L732.267261,31.1269488 L731.946548,31.1269488 L731.946548,29.077951 Z M727.688018,29.077951 L728.917595,29.077951 L728.917595,29.3986637 L728.47216,29.3986637 L728.47216,31.1269488 L728.133808,31.1269488 L728.133808,29.3986637 L727.688018,29.3986637 L727.688018,29.077951 Z M723.625835,29.077951 L724.837416,29.077951 L724.837416,29.3986637 L724.4098,29.3986637 L724.4098,31.1269488 L724.071269,31.1269488 L724.071269,29.3986637 L723.625835,29.3986637 L723.625835,29.077951 Z M720.418708,29.077951 L720.775056,29.077951 L720.775056,31.1269488 L720.418708,31.1269488 L720.418708,29.6124722 L719.385301,31.1269488 L719.028775,31.1269488 L719.028775,29.077951 L719.385301,29.077951 L719.385301,30.5747884 L720.418708,29.077951 Z M717.76392,29.077951 L718.226993,29.077951 L717.35412,30.1291759 L718.226993,31.1269488 L717.746102,31.1269488 L717.122494,30.3608018 L716.926682,30.5747884 L716.926682,31.1269488 L716.570156,31.1269488 L716.570156,29.077951 L716.926682,29.077951 L716.926682,30.1111804 L717.76392,29.077951 Z M715.216036,29.077951 L715.572383,29.077951 L715.572383,31.1269488 L715.216036,31.1269488 L715.216036,29.6124722 L714.200445,31.1269488 L713.844276,31.1269488 L713.844276,29.077951 L714.200445,29.077951 L714.200445,30.5747884 L715.216036,29.077951 Z M709.318486,29.077951 L710.601336,29.077951 L710.601336,29.4166592 L709.674833,29.4166592 L709.674833,29.9155457 L710.03118,29.9155457 L710.10245,29.9155457 L710.173898,29.9155457 L710.244989,29.9331849 L710.334076,29.9510022 L710.387528,29.9688196 L710.44098,30.0044543 L710.494432,30.0402673 L710.565702,30.0579065 L710.583519,30.1111804 L710.619154,30.1648107 L710.654967,30.218441 L710.690423,30.2717149 L710.690423,30.325167 L710.708241,30.3786192 L710.743875,30.4498886 L710.743875,30.5211581 L710.743875,30.6280624 L710.690423,30.6993318 L710.672606,30.7706013 L710.637149,30.8596882 L710.583519,30.9129621 L710.530067,30.9487751 L710.476615,31.0022272 L710.405345,31.0378619 L710.351893,31.0734967 L710.298441,31.0911359 L710.227171,31.1089532 L710.173898,31.1269488 L710.084633,31.1269488 L710.03118,31.1269488 L709.318486,31.1269488 L709.318486,29.077951 Z M708.516704,29.077951 L707.714922,31.1269488 L707.358575,31.1269488 L707.608196,30.5033408 L707.055679,29.077951 L707.44784,29.077951 L707.786192,30.0579065 L708.160356,29.077951 L708.516704,29.077951 Z M704.703786,29.077951 L706.253898,29.077951 L706.253898,31.1269488 L705.89755,31.1269488 L705.89755,29.4166592 L705.042494,29.4166592 L705.042494,31.1269488 L704.703786,31.1269488 L704.703786,29.077951 Z M699.821826,29.077951 L701.193942,29.077951 L701.193942,29.4166592 L700.160356,29.4166592 L700.160356,29.9331849 L701.015768,29.9331849 L701.015768,30.2893541 L700.160356,30.2893541 L700.160356,30.8062361 L701.193942,30.8062361 L701.193942,31.1269488 L699.821826,31.1269488 L699.821826,29.077951 Z M697.55902,29.077951 L698.271715,29.077951 L698.289532,29.077951 L698.360802,29.077951 L698.414254,29.0957684 L698.467706,29.0957684 L698.538976,29.1314031 L698.592428,29.1492205 L698.663697,29.1670379 L698.734967,29.22049 L698.806236,29.2739421 L698.841871,29.3273942 L698.859688,29.3452116 L698.877506,29.3986637 L698.895323,29.4342984 L698.91314,29.4699332 L698.930958,29.5233853 L698.930958,29.5768374 L698.948953,29.6835635 L698.930958,29.7906459 L698.930958,29.844098 L698.91314,29.8797327 L698.895323,29.9155457 L698.877506,29.9688196 L698.859688,30.0044543 L698.841871,30.0222717 L698.806236,30.0935412 L698.734967,30.1469933 L698.663697,30.1826281 L698.592428,30.218441 L698.538976,30.2360802 L698.467706,30.2360802 L698.414254,30.2717149 L698.360802,30.2717149 L698.289532,30.2893541 L698.271715,30.2893541 L697.915367,30.2893541 L697.915367,31.1269488 L697.55902,31.1269488 L697.55902,29.077951 Z M721.541381,32.908686 L738.129176,32.908686 L738.129176,36.7928731 L732.178174,36.7928731 L732.178174,51.1358575 L727.45657,51.1358575 L727.45657,36.7928731 L721.541381,36.7928731 L721.541381,32.908686 Z M738.895323,26.3518931 L738.806236,26.3518931 L738.717149,26.3697105 L738.64588,26.3875278 L738.592249,26.4053452 L738.538976,26.44098 L738.467706,26.4764365 L738.414254,26.5300668 L738.378797,26.5658797 L738.360802,26.636971 L738.30735,26.6726058 L738.271537,26.7438753 L738.253898,26.8151448 L738.23608,26.8507795 L738.218263,26.9398664 L738.200445,27.0822272 L738.218263,27.2071269 L738.23608,27.2782183 L738.253898,27.3496659 L738.271537,27.3853007 L738.30735,27.4565702 L738.360802,27.5102004 L738.378797,27.5634744 L738.414254,27.6169265 L738.467706,27.6703786 L738.538976,27.7058352 L738.592249,27.7416481 L738.64588,27.7416481 L738.717149,27.7772829 L738.806236,27.7951002 L738.895323,27.7951002 L738.966592,27.7951002 L739.037862,27.7772829 L739.109131,27.7416481 L739.180579,27.7416481 L739.25167,27.7058352 L739.287305,27.6703786 L739.340757,27.6169265 L739.376392,27.5634744 L739.429844,27.5102004 L739.447661,27.4565702 L739.483296,27.3853007 L739.501292,27.3496659 L739.518931,27.2782183 L739.536748,27.2071269 L739.554566,27.0822272 L739.536748,26.9398664 L739.518931,26.8507795 L739.501292,26.8151448 L739.483296,26.7438753 L739.447661,26.6726058 L739.429844,26.636971 L739.376392,26.5658797 L739.340757,26.5300668 L739.287305,26.4764365 L739.25167,26.44098 L739.180579,26.4053452 L739.109131,26.3875278 L739.037862,26.3697105 L738.966592,26.3518931 L738.895323,26.3518931 Z M733.211403,26.3518931 L733.140312,26.3518931 L733.069042,26.3697105 L733.01559,26.3875278 L732.926503,26.4053452 L732.855234,26.44098 L732.801782,26.4764365 L732.766325,26.5300668 L732.712695,26.5658797 L732.67706,26.636971 L732.659065,26.6726058 L732.605791,26.7438753 L732.587973,26.8151448 L732.570156,26.8507795 L732.552339,26.9398664 L732.552339,27.0822272 L732.552339,27.2071269 L732.570156,27.2782183 L732.587973,27.3496659 L732.605791,27.3853007 L732.659065,27.4565702 L732.67706,27.5102004 L732.712695,27.5634744 L732.766325,27.6169265 L732.801782,27.6703786 L732.855234,27.7058352 L732.926503,27.7416481 L733.01559,27.7416481 L733.069042,27.7772829 L733.140312,27.7951002 L733.211403,27.7951002 L733.30049,27.7951002 L733.371938,27.7772829 L733.443207,27.7416481 L733.514477,27.7416481 L733.568107,27.7058352 L733.639198,27.6703786 L733.674833,27.6169265 L733.728285,27.5634744 L733.764098,27.5102004 L733.799555,27.4565702 L733.835189,27.3853007 L733.853007,27.3496659 L733.870824,27.2782183 L733.906459,27.2071269 L733.906459,27.0822272 L733.906459,26.9398664 L733.870824,26.8507795 L733.853007,26.8151448 L733.835189,26.7438753 L733.799555,26.6726058 L733.764098,26.636971 L733.728285,26.5658797 L733.674833,26.5300668 L733.639198,26.4764365 L733.568107,26.44098 L733.514477,26.4053452 L733.443207,26.3875278 L733.371938,26.3697105 L733.30049,26.3518931 L733.211403,26.3518931 Z M705.14922,26.3518931 L705.077951,26.3518931 L705.006682,26.3697105 L704.935412,26.3875278 L704.88196,26.4053452 L704.81069,26.44098 L704.775056,26.4764365 L704.721604,26.5300668 L704.685969,26.5658797 L704.650334,26.6191537 L704.614699,26.6726058 L704.579065,26.7438753 L704.561425,26.8151448 L704.525612,26.9398664 L704.525612,27.0822272 L704.525612,27.2071269 L704.561425,27.3318486 L704.579065,27.3853007 L704.614699,27.4565702 L704.650334,27.5102004 L704.685969,27.5634744 L704.721604,27.6169265 L704.775056,27.6703786 L704.81069,27.7058352 L704.88196,27.7416481 L704.935412,27.7416481 L705.006682,27.7772829 L705.077951,27.7951002 L705.14922,27.7951002 L705.22049,27.7951002 L705.309577,27.7772829 L705.363207,27.7416481 L705.434298,27.7416481 L705.487751,27.7058352 L705.541203,27.6703786 L705.594655,27.6169265 L705.63029,27.5634744 L705.665924,27.5102004 L705.701559,27.4565702 L705.755011,27.3853007 L705.755011,27.3318486 L705.790646,27.2071269 L705.790646,27.0822272 L705.790646,26.9398664 L705.755011,26.8151448 L705.755011,26.7438753 L705.701559,26.6726058 L705.665924,26.6191537 L705.63029,26.5658797 L705.594655,26.5300668 L705.541203,26.4764365 L705.487751,26.44098 L705.434298,26.4053452 L705.363207,26.3875278 L705.309577,26.3697105 L705.22049,26.3518931 L705.14922,26.3518931 Z M701.336303,26.3518931 L701.265033,26.3518931 L701.193942,26.3697105 L701.122494,26.3875278 L701.051225,26.4053452 L700.997773,26.44098 L700.944321,26.4764365 L700.890869,26.5300668 L700.837416,26.5658797 L700.801782,26.636971 L700.766147,26.6726058 L700.730512,26.7438753 L700.712695,26.8151448 L700.694878,26.8507795 L700.67706,26.9398664 L700.67706,27.0822272 L700.67706,27.2071269 L700.694878,27.2782183 L700.712695,27.3496659 L700.730512,27.3853007 L700.766147,27.4565702 L700.801782,27.5102004 L700.837416,27.5634744 L700.890869,27.6169265 L700.944321,27.6703786 L700.997773,27.7058352 L701.051225,27.7416481 L701.122494,27.7416481 L701.193942,27.7772829 L701.265033,27.7951002 L701.336303,27.7951002 L701.42539,27.7951002 L701.496659,27.7772829 L701.567929,27.7416481 L701.657016,27.7416481 L701.69265,27.7058352 L701.746102,27.6703786 L701.799555,27.6169265 L701.853007,27.5634744 L701.888641,27.5102004 L701.924276,27.4565702 L701.942094,27.3853007 L701.977728,27.3496659 L702.013363,27.2782183 L702.013363,27.2071269 L702.013363,27.0822272 L702.013363,26.9398664 L702.013363,26.8507795 L701.977728,26.8151448 L701.942094,26.7438753 L701.924276,26.6726058 L701.888641,26.636971 L701.853007,26.5658797 L701.799555,26.5300668 L701.746102,26.4764365 L701.69265,26.44098 L701.657016,26.4053452 L701.567929,26.3875278 L701.496659,26.3697105 L701.42539,26.3518931 L701.336303,26.3518931 Z M741.853007,26.3875278 L741.835189,26.3875278 L741.799376,26.3875278 L741.781737,26.3875278 L741.42539,26.3875278 L741.42539,26.9040535 L741.781737,26.9040535 L741.799376,26.9040535 L741.835189,26.9040535 L741.888641,26.8864143 L741.924276,26.8864143 L741.942094,26.8507795 L741.97755,26.8507795 L742.013363,26.8331403 L742.031002,26.8151448 L742.066815,26.7973274 L742.10245,26.7793318 L742.10245,26.7616927 L742.10245,26.7438753 L742.10245,26.7260579 L742.10245,26.7084187 L742.120089,26.6726058 L742.120089,26.636971 L742.120089,26.6191537 L742.120089,26.6011581 L742.10245,26.5658797 L742.10245,26.5478842 L742.10245,26.5300668 L742.10245,26.4944321 L742.066815,26.4944321 L742.048998,26.4764365 L742.031002,26.4587973 L742.013363,26.44098 L741.97755,26.4229844 L741.942094,26.4053452 L741.924276,26.4053452 L741.888641,26.3875278 L741.853007,26.3875278 Z M736.13363,26.3875278 L736.115813,26.3875278 L735.777283,26.3875278 L735.777283,26.9040535 L736.115813,26.9040535 L736.13363,26.9040535 L736.169443,26.9040535 L736.240535,26.8864143 L736.258352,26.8864143 L736.294165,26.8507795 L736.329621,26.8507795 L736.365078,26.8331403 L736.400891,26.8151448 L736.41853,26.7973274 L736.436526,26.7793318 L736.436526,26.7616927 L736.436526,26.7438753 L736.454343,26.7260579 L736.454343,26.7084187 L736.472339,26.6726058 L736.472339,26.636971 L736.472339,26.6191537 L736.472339,26.6011581 L736.454343,26.5835189 L736.454343,26.5658797 L736.436526,26.5300668 L736.436526,26.4944321 L736.41853,26.4944321 L736.400891,26.4764365 L736.365078,26.44098 L736.329621,26.4229844 L736.294165,26.4229844 L736.258352,26.4053452 L736.240535,26.4053452 L736.169443,26.3875278 L736.13363,26.3875278 Z M715.233853,26.3875278 L715.216036,26.3875278 L714.877506,26.3875278 L714.877506,26.9040535 L715.216036,26.9040535 L715.233853,26.9040535 L715.269488,26.9040535 L715.340757,26.8864143 L715.376392,26.8864143 L715.394209,26.8507795 L715.429844,26.8507795 L715.44784,26.8331403 L715.483296,26.8151448 L715.518931,26.7973274 L715.518931,26.7793318 L715.554566,26.7616927 L715.554566,26.7438753 L715.554566,26.7260579 L715.554566,26.7084187 L715.554566,26.6726058 L715.572383,26.6726058 L715.572383,26.636971 L715.572383,26.6191537 L715.554566,26.6011581 L715.554566,26.5835189 L715.554566,26.5658797 L715.554566,26.5300668 L715.518931,26.4944321 L715.483296,26.4764365 L715.44784,26.44098 L715.429844,26.4229844 L715.394209,26.4229844 L715.376392,26.4053452 L715.340757,26.4053452 L715.269488,26.3875278 L715.233853,26.3875278 Z M712.418886,27.5634744 L712.917595,27.5634744 L712.668151,26.8507795 L712.418886,27.5634744 Z M741.799376,27.2427617 L741.781737,27.2427617 L741.42539,27.2427617 L741.42539,27.7416481 L741.781737,27.7416481 L741.835189,27.7416481 L741.888641,27.7416481 L741.924276,27.7416481 L741.959911,27.7416481 L741.97755,27.7238307 L742.013363,27.7238307 L742.048998,27.7058352 L742.066815,27.688196 L742.10245,27.6703786 L742.120089,27.634922 L742.120089,27.6169265 L742.138085,27.5634744 L742.138085,27.545657 L742.155724,27.5102004 L742.155724,27.4743875 L742.138085,27.4565702 L742.138085,27.4387528 L742.138085,27.4209354 L742.120089,27.3853007 L742.10245,27.3676615 L742.10245,27.3496659 L742.10245,27.3318486 L742.066815,27.3140312 L742.031002,27.2962138 L741.995546,27.2782183 L741.959911,27.2782183 L741.924276,27.2605791 L741.888641,27.2605791 L741.835189,27.2427617 L741.799376,27.2427617 Z M732.623608,29.4166592 L732.267261,29.4166592 L732.267261,29.9510022 L732.623608,29.9510022 L732.659065,29.9510022 L732.67706,29.9331849 L732.730512,29.9331849 L732.766325,29.9155457 L732.801782,29.9155457 L732.837416,29.8797327 L732.855234,29.8797327 L732.890869,29.8619154 L732.908686,29.8262806 L732.926503,29.8082851 L732.944499,29.7906459 L732.944499,29.7730067 L732.962316,29.7371938 L732.962316,29.701559 L732.962316,29.6835635 L732.962316,29.6481069 L732.962316,29.6301114 L732.962316,29.6124722 L732.944499,29.5946548 L732.944499,29.5768374 L732.926503,29.55902 L732.926503,29.5233853 L732.908686,29.5233853 L732.890869,29.5053898 L732.855234,29.4875724 L732.837416,29.4699332 L732.801782,29.4521158 L732.766325,29.4342984 L732.730512,29.4342984 L732.67706,29.4342984 L732.659065,29.4166592 L732.623608,29.4166592 Z M697.915367,29.4166592 L697.915367,29.9510022 L698.271715,29.9510022 L698.30735,29.9331849 L698.360802,29.9331849 L698.396437,29.9155457 L698.449889,29.9155457 L698.449889,29.8797327 L698.485523,29.8797327 L698.521158,29.8619154 L698.538976,29.8262806 L698.556793,29.8082851 L698.57461,29.7906459 L698.57461,29.7730067 L698.592428,29.7371938 L698.592428,29.701559 L698.592428,29.6835635 L698.592428,29.6481069 L698.592428,29.6301114 L698.592428,29.6124722 L698.57461,29.5946548 L698.57461,29.5768374 L698.556793,29.55902 L698.556793,29.5233853 L698.538976,29.5233853 L698.521158,29.5053898 L698.485523,29.4875724 L698.449889,29.4699332 L698.449889,29.4521158 L698.396437,29.4342984 L698.360802,29.4342984 L698.30735,29.4342984 L698.271715,29.4166592 L697.915367,29.4166592 Z M738.98441,30.5924276 L739.483296,30.5924276 L739.25167,29.8797327 L738.98441,30.5924276 Z M730.075724,30.5924276 L730.57461,30.5924276 L730.342984,29.8797327 L730.075724,30.5924276 Z M726.013363,30.5924276 L726.512249,30.5924276 L726.262806,29.8797327 L726.013363,30.5924276 Z M710.120267,30.2360802 L710.066815,30.2360802 L710.03118,30.2360802 L709.674833,30.2360802 L709.674833,30.8062361 L710.03118,30.8062361 L710.066815,30.8062361 L710.10245,30.7706013 L710.120267,30.7706013 L710.155902,30.7706013 L710.209354,30.7706013 L710.244989,30.752784 L710.280624,30.7349666 L710.298441,30.7173274 L710.316258,30.6815145 L710.351893,30.6636971 L710.351893,30.6280624 L710.387528,30.5924276 L710.387528,30.5567929 L710.387528,30.5211581 L710.387528,30.4853452 L710.387528,30.4142539 L710.351893,30.4142539 L710.351893,30.3786192 L710.316258,30.3429844 L710.298441,30.325167 L710.280624,30.3071715 L710.244989,30.2893541 L710.227171,30.2893541 L710.209354,30.2717149 L710.155902,30.2360802 L710.120267,30.2360802 Z"></path>
            </g>
        </g>
    </g>
</svg>