<svg width="14" height="14" viewBox="0 0 14 14" fill="none" xmlns="http://www.w3.org/2000/svg">
<path fill-rule="evenodd" clip-rule="evenodd" d="M3.86348 0H10.1365C12.267 0 14 1.7331 14 3.86359V10.1365C14 12.2666 12.267 14 10.1365 14H3.86348C1.733 14 0 12.267 0 10.1365V3.86359C0 1.7331 1.733 0 3.86348 0ZM10.1365 12.7579C11.5821 12.7579 12.7579 11.5821 12.7579 10.1365V3.86359C12.7579 2.41804 11.5821 1.24214 10.1365 1.24214H3.86348C2.41794 1.24214 1.24214 2.41804 1.24214 3.86359V10.1365C1.24214 11.5821 2.41794 12.7579 3.86348 12.7579H10.1365ZM3.3924 7C3.3924 5.01112 5.0106 3.39292 7 3.39292C8.98898 3.39292 10.6076 5.01112 10.6076 7C10.6076 8.9894 8.98898 10.6076 7 10.6076C5.0106 10.6076 3.3924 8.9894 3.3924 7ZM4.63454 7C4.63454 8.30446 5.69596 9.36504 7 9.36504C8.30404 9.36504 9.36546 8.30446 9.36546 7C9.36546 5.69606 8.30446 4.63465 7 4.63465C5.69554 4.63465 4.63454 5.69606 4.63454 7ZM10.1155 2.60602C10.2844 2.43626 10.5194 2.33958 10.7588 2.33958C10.999 2.33958 11.2338 2.43626 11.4029 2.60602C11.5727 2.77505 11.6697 3.01034 11.6697 3.25059C11.6697 3.48949 11.5727 3.72488 11.4029 3.89464C11.2331 4.06367 10.999 4.16118 10.7588 4.16118C10.5194 4.16118 10.2841 4.06367 10.1155 3.89464C9.94564 3.72488 9.84782 3.48991 9.84782 3.25059C9.84782 3.01034 9.94523 2.77505 10.1155 2.60602Z" fill="white"/>
</svg>
