<svg width="12" height="7" viewBox="0 0 12 7" fill="none" xmlns="http://www.w3.org/2000/svg">
<path fill-rule="evenodd" clip-rule="evenodd" d="M5.87129 6.97079H6.58871C6.58871 6.97079 6.80518 6.94643 6.91556 6.82441C7.01738 6.71218 7.01432 6.50229 7.01432 6.50229C7.01432 6.50229 7.00007 5.51802 7.44706 5.3733C7.88774 5.23004 8.45243 6.32405 9.05236 6.74466C9.50566 7.06345 9.85022 6.99349 9.85022 6.99349L11.4523 6.97079C11.4523 6.97079 12.2906 6.9179 11.8929 6.24368C11.8604 6.18829 11.6614 5.74498 10.7012 4.834C9.69668 3.88075 9.83108 4.03442 11.0417 2.38487C11.7791 1.3804 12.0736 0.767183 11.9819 0.504404C11.8938 0.253911 11.3521 0.320543 11.3521 0.320543L9.547 0.331995C9.547 0.331995 9.41341 0.313255 9.31403 0.373431C9.2169 0.432775 9.15499 0.571869 9.15499 0.571869C9.15499 0.571869 8.86928 1.34958 8.48827 2.00986C7.68491 3.40579 7.36357 3.47888 7.23222 3.39268C6.92676 3.19007 7.00312 2.58102 7.00312 2.14833C7.00312 0.796334 7.20371 0.232672 6.61254 0.0871237C6.41684 0.0383994 6.27205 0.00654114 5.77089 0.001752C5.12657 -0.00553584 4.58184 0.00341778 4.27312 0.15792C4.06785 0.260366 3.90962 0.489829 4.00574 0.502738C4.12507 0.51898 4.39571 0.577699 4.53887 0.776969C4.72337 1.03392 4.71705 1.61132 4.71705 1.61132C4.71705 1.61132 4.82356 3.20319 4.46881 3.4008C4.22546 3.53677 3.8921 3.2592 3.17529 1.99362C2.80874 1.34542 2.53179 0.628922 2.53179 0.628922C2.53179 0.628922 2.47843 0.495451 2.38313 0.423822C2.26685 0.336784 2.10536 0.309299 2.10536 0.309299L0.391116 0.320543C0.391116 0.320543 0.133511 0.32783 0.0388183 0.442562C-0.0446743 0.544175 0.0325055 0.754897 0.0325055 0.754897C0.0325055 0.754897 1.3745 3.96612 2.89447 5.58402C4.28819 7.06824 5.87129 6.97079 5.87129 6.97079Z" fill="#193441"/>
</svg>
